Coordinates
version=1
nRows=4
nColumns=107
inDegrees=yes

Units are S.I. units (second, meters, Newtons, ...)
If the header above contains a line with 'inDegrees', this indicates whether rotational values are in degrees (yes) or radians (no).

endheader
time	sternoclavicular_r2	sternoclavicular_r3	unrotscap_r3	unrotscap_r2	acromioclavicular_r2	acromioclavicular_r3	acromioclavicular_r1	unrothum_r1	unrothum_r3	unrothum_r2	elv_angle	shoulder_elv	shoulder1_r2	shoulder_rot	elbow_flexion	pro_sup	deviation	flexion	proximal_distal_r1	proximal_distal_r3	cmc_flexion	cmc_abduction	mp_flexion	ip_flexion	mcp2_flexion	mcp2_abduction	pm2_flexion	md2_flexion	mcp3_flexion	mcp3_abduction	pm3_flexion	md3_flexion	mcp4_flexion	mcp4_abduction	pm4_flexion	md4_flexion	mcp5_flexion	mcp5_abduction	pm5_flexion	md5_flexion	bicpt_tx	bicpt_ty	bicpt_tz	bicpt2_tx	bicpt2_ty	bicpt2_tz	ptpt_tx	ptpt_ty	ptpt_tz	FCUpt_tx	FCUpt_ty	FCUpt_tz	EDCpt_tx	EDCpt_ty	EDCpt_tz	APLpt_tx	APLpt_ty	APLpt_tz	FPLpt_tx	FPLpt_ty	FPLpt_tz	FPLpt2_tx	FPLpt2_ty	FPLpt2_tz	PEC1pt2_tx	PEC1pt2_ty	PEC1pt2_tz	PEC1pt3_tx	PEC1pt3_ty	PEC1pt3_tz	PEC2pt2_tx	PEC2pt2_ty	PEC2pt2_tz	PEC2pt3_tx	PEC2pt3_ty	PEC2pt3_tz	PEC3pt2_tx	PEC3pt2_ty	PEC3pt2_tz	PEC3pt3_tx	PEC3pt3_ty	PEC3pt3_tz	DELT2pt2a_tx	DELT2pt2a_ty	DELT2pt2a_tz	DELT2pt2_tx	DELT2pt2_ty	DELT2pt2_tz	LAT1pt2_tx	LAT1pt2_ty	LAT1pt2_tz	LAT1pt3_tx	LAT1pt3_ty	LAT1pt3_tz	LAT2pt2_tx	LAT2pt2_ty	LAT2pt2_tz	LAT2pt3_tx	LAT2pt3_ty	LAT2pt3_tz	LAT3pt2_tx	LAT3pt2_ty	LAT3pt2_tz	LAT3pt3_tx	LAT3pt3_ty	LAT3pt3_tz
      1.26666667	     -0.30900936	      0.13088178	     -0.13088178	      0.30900936	     -0.06256811	      0.50565345	      0.22728775	     -0.22728775	     -0.50565345	      0.06256811	    103.39170974	     73.16071202	     -1.80452575	    -44.66614431	     30.80915483	     82.87860498	      0.34288198	     -0.50935262	      0.36910933	     -0.25467631	     41.83181713	     -0.59588050	     15.49025802	      9.37244702	     99.15449388	     11.39727192	     83.34298291	     79.84272997	     98.99590317	      0.54775329	     83.27809269	     51.30682579	     96.10906279	    -13.18862690	     93.68852593	     38.88117152	     94.68396033	    -14.15386772	     93.15789757	      5.54536284	      0.00091907	     -0.03113120	     -0.00486878	      0.01455143	     -0.01856946	     -0.00160375	      0.00142621	     -0.06885975	     -0.00672632	      0.01238093	     -0.18234206	      0.00000149	     -0.00994541	      0.00340822	     -0.00065963	      0.00030387	      0.00012155	      0.00060775	      0.00038896	      0.00116687	      0.00065637	     -0.00000768	     -0.00007363	     -0.00008835	      0.00239805	      0.00841349	      0.00585286	     -0.00784446	      0.01894051	     -0.01796503	      0.00239805	      0.00841349	      0.00585286	      0.00052838	      0.01755859	     -0.00922639	      0.00383248	      0.00467863	      0.01567852	      0.00000000	      0.00715446	      0.00000000	     -0.00686898	     -0.03174365	     -0.00589543	      0.02394109	     -0.00128257	     -0.01575633	     -0.00085354	      0.01430700	     -0.00585286	      0.00235740	      0.02064760	     -0.01707085	     -0.00573093	      0.01239669	     -0.00524319	     -0.01194959	      0.02617530	     -0.02930495	     -0.02243597	      0.01385990	     -0.00703156	     -0.01487602	      0.03023979	     -0.03662103
      1.30000000	     -0.30913620	      0.13093550	     -0.13093550	      0.30913620	     -0.06259379	      0.50586100	      0.22738104	     -0.22738104	     -0.50586100	      0.06259379	    103.34923398	     73.19074227	     -1.80378441	    -44.50099255	     30.79640874	     82.87576585	      0.34564251	     -0.50177714	      0.37129954	     -0.25088857	     41.83943504	     -0.59615045	     15.55032633	      9.43330799	     99.19536480	     11.39712537	     83.40450360	     79.92117934	     99.08383495	      0.53631476	     83.25022881	     51.10416590	     96.11615797	    -13.19756138	     93.63653149	     38.36496698	     94.81853165	    -14.15353731	     92.86933464	      5.54784956	      0.00091865	     -0.03112974	     -0.00486855	      0.01455170	     -0.01856600	     -0.00160422	      0.00142642	     -0.06885961	     -0.00672609	      0.01238061	     -0.18234215	      0.00000142	     -0.00994507	      0.00340807	     -0.00065954	      0.00030253	      0.00012101	      0.00060507	      0.00038724	      0.00116173	      0.00065347	     -0.00000767	     -0.00007346	     -0.00008816	      0.00239903	      0.00841694	      0.00585526	     -0.00784768	      0.01894829	     -0.01797241	      0.00239903	      0.00841694	      0.00585526	      0.00052860	      0.01756579	     -0.00923017	      0.00383365	      0.00468055	      0.01568152	      0.00000000	      0.00716037	      0.00000000	     -0.00687180	     -0.03175668	     -0.00590035	      0.02390003	     -0.00127644	     -0.01565305	     -0.00085389	      0.01431287	     -0.00585526	      0.00235837	      0.02065607	     -0.01707785	     -0.00573328	      0.01240178	     -0.00524534	     -0.01195450	      0.02618604	     -0.02931698	     -0.02244518	      0.01386559	     -0.00703445	     -0.01488213	      0.03025220	     -0.03663606
      1.33333333	     -0.30943471	      0.13106194	     -0.13106194	      0.30943471	     -0.06265423	      0.50634948	      0.22760060	     -0.22760060	     -0.50634948	      0.06265423	    103.24040591	     73.26141712	     -1.80188500	    -44.05634255	     30.74063383	     82.52974630	      0.34792337	     -0.49981051	      0.37310021	     -0.24990526	     41.82952014	     -0.61624216	     15.54286093	      9.33270435	     99.20536820	     11.35107239	     83.41573556	     79.91023915	     99.12447522	      0.55105798	     83.37105021	     50.37349579	     96.24973341	    -13.20657979	     93.38993594	     38.57105286	     94.87996341	    -14.15453780	     92.78555710	      5.54099177	      0.00091680	     -0.03112335	     -0.00486752	      0.01458485	     -0.01855084	     -0.00166187	      0.00145198	     -0.06884308	     -0.00669821	      0.01234121	     -0.18235354	     -0.00000725	     -0.00990355	      0.00338944	     -0.00064905	      0.00030218	      0.00012087	      0.00060435	      0.00038678	      0.00116035	      0.00065270	     -0.00000769	     -0.00007368	     -0.00008841	      0.00240135	      0.00842507	      0.00586092	     -0.00785526	      0.01896658	     -0.01798976	      0.00240135	      0.00842507	      0.00586092	      0.00052911	      0.01758275	     -0.00923909	      0.00383640	      0.00468507	      0.01568856	      0.00000000	      0.00717429	      0.00000000	     -0.00687844	     -0.03178734	     -0.00591191	      0.02378783	     -0.00125995	     -0.01537585	     -0.00085472	      0.01432669	     -0.00586092	      0.00236065	      0.02067602	     -0.01709435	     -0.00573882	      0.01241375	     -0.00525041	     -0.01196604	      0.02621133	     -0.02934529	     -0.02246685	      0.01387898	     -0.00704124	     -0.01489650	      0.03028141	     -0.03667144
      1.36666667	     -0.30940339	      0.13104867	     -0.13104867	      0.30940339	     -0.06264789	      0.50629822	      0.22757757	     -0.22757757	     -0.50629822	      0.06264789	    103.28506398	     73.25400164	     -1.80266443	    -44.19547764	     30.71063164	     82.48156970	      0.34486730	     -0.50526531	      0.37068562	     -0.25263265	     41.86973700	     -0.39459438	     15.49526222	      9.59216651	     99.16337532	     11.36075128	     83.32970884	     79.84576990	     99.22902830	      0.53635012	     83.23718173	     50.56785043	     96.32037602	    -13.22402334	     93.49260148	     38.00606654	     94.86286257	    -14.15636190	     93.09819605	      5.52935984	      0.00091581	     -0.03111991	     -0.00486697	      0.01458945	     -0.01854269	     -0.00166989	      0.00145554	     -0.06884078	     -0.00669433	      0.01233573	     -0.18235513	     -0.00000845	     -0.00989777	      0.00338684	     -0.00064759	      0.00030316	      0.00012126	      0.00060632	      0.00038805	      0.00116414	      0.00065483	     -0.00000761	     -0.00007281	     -0.00008738	      0.00240111	      0.00842422	      0.00586033	     -0.00785446	      0.01896466	     -0.01798794	      0.00240111	      0.00842422	      0.00586033	      0.00052906	      0.01758098	     -0.00923815	      0.00383611	      0.00468460	      0.01568782	      0.00000000	      0.00717282	      0.00000000	     -0.00687774	     -0.03178412	     -0.00591070	      0.02382322	     -0.00126511	     -0.01546244	     -0.00085463	      0.01432524	     -0.00586033	      0.00236041	      0.02067392	     -0.01709261	     -0.00573823	      0.01241249	     -0.00524987	     -0.01196483	      0.02620868	     -0.02934232	     -0.02246458	      0.01387758	     -0.00704053	     -0.01489499	      0.03027835	     -0.03666773
